<svg width="31" height="31" viewBox="0 0 31 31" fill="none" xmlns="http://www.w3.org/2000/svg">
<rect width="30.6639" height="30.6667" rx="15.3319" fill="white" fill-opacity="0.8"/>
<path fill-rule="evenodd" clip-rule="evenodd" d="M11.8048 22.4713L20.104 14.1699C20.1157 14.1597 20.127 14.1491 20.1381 14.1381C20.1492 14.1269 20.1598 14.1155 20.17 14.1039L22.0781 12.1952C22.8591 11.4142 22.8591 10.1479 22.0781 9.36681L21.297 8.58575C20.516 7.80471 19.2496 7.80477 18.4685 8.58582L8.1952 18.8619C8.07021 18.987 8 19.1565 8 19.3333V22C8 22.3681 8.29848 22.6667 8.66667 22.6667H11.3333C11.5102 22.6667 11.6798 22.5964 11.8048 22.4713ZM20.3542 9.52856C20.0939 9.26821 19.6717 9.26821 19.4114 9.52857L17.9416 10.9988L19.6655 12.7226L21.1353 11.2524C21.3956 10.9921 21.3956 10.57 21.1353 10.3096L20.3542 9.52856ZM9.33333 19.6094L16.9989 11.9417L18.7228 13.6656L11.0571 21.3333H9.33333V19.6094ZM14.6667 21.3333C14.2985 21.3333 14 21.6318 14 22C14 22.3682 14.2985 22.6667 14.6667 22.6667H20.6667C21.0349 22.6667 21.3333 22.3682 21.3333 22C21.3333 21.6318 21.0349 21.3333 20.6667 21.3333H14.6667Z" fill="#A1A1A1"/>
</svg>
