<svg width="24" height="24" viewBox="0 0 24 24" fill="none" xmlns="http://www.w3.org/2000/svg">
<g clip-path="url(#clip0_514_20254)">
<path d="M18.7672 1.88269H14.478C14.1709 0.797424 13.1713 0 11.989 0C10.8067 0 9.80731 0.797424 9.50024 1.88269H5.21082C3.78497 1.88269 2.625 3.04285 2.625 4.46869V21.414C2.625 22.84 3.78497 24 5.21082 24H18.7672C20.1931 24 21.353 22.84 21.353 21.414V4.46869C21.3532 3.04285 20.1931 1.88269 18.7672 1.88269ZM10.1063 3.28894C10.4945 3.28894 10.8094 2.97418 10.8094 2.58582C10.8094 1.93542 11.3386 1.40625 11.989 1.40625C12.6396 1.40625 13.1688 1.93542 13.1688 2.58582C13.1688 2.97418 13.4835 3.28894 13.8719 3.28894H15.0516V5.64844H8.92658V3.28894H10.1063ZM19.947 21.414C19.947 22.0646 19.4178 22.5938 18.7672 22.5938H5.21082C4.56042 22.5938 4.03125 22.0646 4.03125 21.414V4.46869C4.03125 3.8183 4.56042 3.28894 5.21082 3.28894H7.52033V6.35156C7.52033 6.73993 7.83508 7.05469 8.22345 7.05469H15.7548C16.1429 7.05469 16.4579 6.73993 16.4579 6.35156V3.28894H18.7672C19.4178 3.28894 19.947 3.8183 19.947 4.46869V21.414Z" fill="#A1A1A1"/>
<path d="M7.09387 18.8281C6.90875 18.8281 6.72729 18.903 6.59656 19.0338C6.46582 19.1647 6.39075 19.3459 6.39075 19.5312C6.39075 19.7158 6.46582 19.8973 6.59656 20.028C6.72729 20.1593 6.90875 20.2344 7.09387 20.2344C7.27863 20.2344 7.46008 20.1593 7.59082 20.028C7.72211 19.8973 7.797 19.7158 7.797 19.5312C7.797 19.3459 7.72192 19.1647 7.59082 19.0338C7.46008 18.903 7.27899 18.8281 7.09387 18.8281Z" fill="#A1A1A1"/>
<path d="M7.09387 15.6895C6.90875 15.6895 6.72729 15.7645 6.59656 15.8958C6.46582 16.0266 6.39075 16.208 6.39075 16.3926C6.39075 16.5779 6.46582 16.7592 6.59656 16.8899C6.72729 17.0208 6.90875 17.0957 7.09387 17.0957C7.27899 17.0957 7.46008 17.0208 7.59082 16.8899C7.72211 16.7592 7.797 16.5779 7.797 16.3926C7.797 16.208 7.72192 16.0266 7.59082 15.8958C7.46008 15.7645 7.27899 15.6895 7.09387 15.6895Z" fill="#A1A1A1"/>
<path d="M7.09387 12.5518C6.90875 12.5518 6.72729 12.6266 6.59656 12.7576C6.46582 12.8887 6.39075 13.0696 6.39075 13.2549C6.39075 13.44 6.46582 13.6209 6.59656 13.7522C6.72729 13.8829 6.90875 13.958 7.09387 13.958C7.27863 13.958 7.46008 13.8829 7.59082 13.7522C7.72211 13.6209 7.797 13.44 7.797 13.2549C7.797 13.0696 7.72192 12.8887 7.59082 12.7576C7.46008 12.6266 7.27899 12.5518 7.09387 12.5518Z" fill="#A1A1A1"/>
<path d="M7.09387 9.41406C6.90875 9.41406 6.72729 9.48969 6.59656 9.62042C6.46582 9.75116 6.39075 9.93262 6.39075 10.1172C6.39075 10.3025 6.46582 10.4838 6.59656 10.6147C6.72729 10.7454 6.90875 10.8203 7.09387 10.8203C7.27899 10.8203 7.46008 10.7454 7.59082 10.6147C7.72211 10.4838 7.797 10.3025 7.797 10.1172C7.797 9.93262 7.72192 9.75116 7.59082 9.62042C7.46008 9.48969 7.27899 9.41406 7.09387 9.41406Z" fill="#A1A1A1"/>
<path d="M16.8843 18.8281H10.8593C10.4711 18.8281 10.1561 19.1431 10.1561 19.5312C10.1561 19.9196 10.4711 20.2344 10.8593 20.2344H16.8843C17.2727 20.2344 17.5875 19.9196 17.5875 19.5312C17.5875 19.1431 17.2727 18.8281 16.8843 18.8281Z" fill="#A1A1A1"/>
<path d="M16.8843 15.6904H10.8593C10.4711 15.6904 10.1561 16.0052 10.1561 16.3936C10.1561 16.7819 10.4711 17.0967 10.8593 17.0967H16.8843C17.2727 17.0967 17.5875 16.7819 17.5875 16.3936C17.5875 16.0052 17.2727 15.6904 16.8843 15.6904Z" fill="#A1A1A1"/>
<path d="M16.8843 12.5518H10.8593C10.4711 12.5518 10.1561 12.8665 10.1561 13.2549C10.1561 13.6432 10.4711 13.958 10.8593 13.958H16.8843C17.2727 13.958 17.5875 13.6432 17.5875 13.2549C17.5875 12.8665 17.2727 12.5518 16.8843 12.5518Z" fill="#A1A1A1"/>
<path d="M16.8843 9.41406H10.8593C10.4711 9.41406 10.1561 9.72882 10.1561 10.1172C10.1561 10.5054 10.4711 10.8203 10.8593 10.8203H16.8843C17.2727 10.8203 17.5875 10.5054 17.5875 10.1172C17.5875 9.72882 17.2727 9.41406 16.8843 9.41406Z" fill="#A1A1A1"/>
</g>
<defs>
<clipPath id="clip0_514_20254">
<rect width="24" height="24" fill="white"/>
</clipPath>
</defs>
</svg>
