<svg width="24" height="24" viewBox="0 0 24 24" fill="none" xmlns="http://www.w3.org/2000/svg">
<path d="M8.23438 7.05469H15.7656C16.1539 7.05469 16.4687 6.73987 16.4687 6.35156V2.58591C16.4687 2.19759 16.1539 1.88278 15.7656 1.88278H14.4888C14.1818 0.797484 13.1823 0 12 0C10.8177 0 9.81819 0.797484 9.51116 1.88278H8.23438C7.84606 1.88278 7.53125 2.19759 7.53125 2.58591V6.35156C7.53125 6.73987 7.84606 7.05469 8.23438 7.05469Z" fill="#FFBE00"/>
<path d="M18.7782 1.88281H17.7541C17.8322 2.10289 17.875 2.33947 17.875 2.58594V6.35159C17.875 7.5147 16.9288 8.46097 15.7657 8.46097H8.23446C7.0713 8.46097 6.12508 7.5147 6.12508 6.35159V2.58594C6.12508 2.33947 6.16797 2.10289 6.24602 1.88281H5.22189C3.796 1.88281 2.63599 3.04287 2.63599 4.46877V21.414C2.63599 22.84 3.796 24 5.22189 24H18.7782C20.2041 24 21.3641 22.84 21.3641 21.414V4.46877C21.3641 3.04287 20.2041 1.88281 18.7782 1.88281ZM7.60178 20.7314C7.47105 20.8622 7.2896 20.9377 7.10449 20.9377C6.9198 20.9377 6.73835 20.8622 6.60761 20.7314C6.47678 20.6007 6.40178 20.4193 6.40178 20.2346C6.40178 20.0494 6.47678 19.868 6.60761 19.7372C6.73835 19.6064 6.91975 19.5314 7.10449 19.5314C7.2896 19.5314 7.47105 19.6064 7.60178 19.7372C7.73308 19.868 7.80803 20.0494 7.80803 20.2346C7.80803 20.4192 7.73308 20.6006 7.60178 20.7314ZM6.40178 17.0963C6.40178 16.9111 6.47678 16.7302 6.60761 16.5989C6.73835 16.4682 6.91975 16.3932 7.10491 16.3932C7.28955 16.3932 7.47105 16.4682 7.60178 16.5989C7.73261 16.7302 7.80761 16.9111 7.80761 17.0963C7.80761 17.2814 7.73261 17.4628 7.60178 17.5936C7.47105 17.7244 7.2896 17.7994 7.10491 17.7994C6.91975 17.7994 6.73835 17.7244 6.60761 17.5936C6.47678 17.4628 6.40178 17.2814 6.40178 17.0963ZM7.60178 14.4558C7.47105 14.5866 7.2896 14.6616 7.10449 14.6616C6.9198 14.6616 6.73835 14.5866 6.60761 14.4558C6.47678 14.3246 6.40178 14.1432 6.40178 13.9585C6.40178 13.7734 6.47678 13.592 6.60761 13.4612C6.73835 13.3304 6.91975 13.2553 7.10449 13.2553C7.29011 13.2553 7.47105 13.3304 7.60178 13.4612C7.73308 13.592 7.80803 13.7734 7.80803 13.9585C7.80803 14.1432 7.73308 14.3246 7.60178 14.4558ZM7.60178 11.3175C7.47105 11.4483 7.2896 11.5234 7.10491 11.5234C6.91975 11.5234 6.73835 11.4483 6.60761 11.3175C6.47678 11.1868 6.40178 11.0053 6.40178 10.8202C6.40178 10.6355 6.47678 10.4541 6.60761 10.3233C6.73835 10.1925 6.91975 10.1171 7.10491 10.1171C7.28955 10.1171 7.47105 10.1925 7.60178 10.3233C7.73261 10.4541 7.80803 10.6355 7.80803 10.8202C7.80803 11.0053 7.73261 11.1867 7.60178 11.3175ZM16.8954 20.9375H10.8703C10.482 20.9375 10.1672 20.6227 10.1672 20.2344C10.1672 19.8461 10.482 19.5312 10.8703 19.5312H16.8953C17.2836 19.5312 17.5984 19.8461 17.5984 20.2344C17.5985 20.6227 17.2837 20.9375 16.8954 20.9375ZM16.8954 17.7995H10.8703C10.482 17.7995 10.1672 17.4847 10.1672 17.0964C10.1672 16.7081 10.482 16.3932 10.8703 16.3932H16.8953C17.2836 16.3932 17.5984 16.7081 17.5984 17.0964C17.5985 17.4847 17.2837 17.7995 16.8954 17.7995ZM16.8954 14.6615H10.8703C10.482 14.6615 10.1672 14.3467 10.1672 13.9584C10.1672 13.5701 10.482 13.2553 10.8703 13.2553H16.8953C17.2836 13.2553 17.5984 13.5701 17.5984 13.9584C17.5985 14.3467 17.2837 14.6615 16.8954 14.6615ZM16.8954 11.5235H10.8703C10.482 11.5235 10.1672 11.2087 10.1672 10.8204C10.1672 10.4321 10.482 10.1173 10.8703 10.1173H16.8953C17.2836 10.1173 17.5984 10.4321 17.5984 10.8204C17.5985 11.2087 17.2837 11.5235 16.8954 11.5235Z" fill="#FFBE00"/>
</svg>
