<svg width="16" height="16" viewBox="0 0 16 16" fill="none" xmlns="http://www.w3.org/2000/svg">
<path d="M8 8H8.00667" stroke="#62617C" stroke-linecap="round" stroke-linejoin="round"/>
<path d="M10.6663 3.99999V2.66666C10.6663 2.31304 10.5259 1.9739 10.2758 1.72385C10.0258 1.4738 9.68663 1.33333 9.33301 1.33333H6.66634C6.31272 1.33333 5.97358 1.4738 5.72353 1.72385C5.47348 1.9739 5.33301 2.31304 5.33301 2.66666V3.99999" stroke="#62617C" stroke-linecap="round" stroke-linejoin="round"/>
<path d="M14.6663 8.66669C12.6882 9.97267 10.37 10.6689 7.99967 10.6689C5.62931 10.6689 3.31115 9.97267 1.33301 8.66669" stroke="#62617C" stroke-linecap="round" stroke-linejoin="round"/>
<path d="M13.333 4H2.66634C1.92996 4 1.33301 4.59695 1.33301 5.33333V12C1.33301 12.7364 1.92996 13.3333 2.66634 13.3333H13.333C14.0694 13.3333 14.6663 12.7364 14.6663 12V5.33333C14.6663 4.59695 14.0694 4 13.333 4Z" stroke="#62617C" stroke-linecap="round" stroke-linejoin="round"/>
</svg>
