<svg width="16" height="16" viewBox="0 0 16 16" fill="none" xmlns="http://www.w3.org/2000/svg">
<path d="M13 3.75C13 5.26867 10.5373 6.5 7.5 6.5C4.46267 6.5 2 5.26867 2 3.75M13 3.75C13 2.23133 10.5373 1 7.5 1C4.46267 1 2 2.23133 2 3.75M13 3.75V11.25C13 12.7687 10.5373 14 7.5 14C4.46267 14 2 12.7687 2 11.25V3.75M13 3.75V6.25M2 3.75V6.25M13 6.25V8.75C13 10.2687 10.5373 11.5 7.5 11.5C4.46267 11.5 2 10.2687 2 8.75V6.25M13 6.25C13 7.76867 10.5373 9 7.5 9C4.46267 9 2 7.76867 2 6.25" stroke="#FEA500" stroke-width="1.5" stroke-linecap="round" stroke-linejoin="round"/>
</svg>
