<svg width="16" height="16" viewBox="0 0 16 16" fill="none" xmlns="http://www.w3.org/2000/svg">
<path d="M7.99998 14.6668C4.31808 14.6668 1.33331 11.682 1.33331 8.00016C1.33331 4.31826 4.31808 1.3335 7.99998 1.3335C11.6818 1.3335 14.6666 4.31826 14.6666 8.00016C14.6666 11.682 11.6818 14.6668 7.99998 14.6668ZM7.99998 13.3335C10.9455 13.3335 13.3333 10.9457 13.3333 8.00016C13.3333 5.05464 10.9455 2.66683 7.99998 2.66683C5.05446 2.66683 2.66665 5.05464 2.66665 8.00016C2.66665 10.9457 5.05446 13.3335 7.99998 13.3335ZM7.33331 10.0002H8.66665V11.3335H7.33331V10.0002ZM8.66665 8.90356V9.3335H7.33331V8.3335C7.33331 7.9653 7.63178 7.66683 7.99998 7.66683C8.55225 7.66683 8.99998 7.2191 8.99998 6.66683C8.99998 6.11454 8.55225 5.66683 7.99998 5.66683C7.51485 5.66683 7.11038 6.01232 7.01918 6.47068L5.71152 6.20914C5.92423 5.13962 6.86798 4.3335 7.99998 4.3335C9.28865 4.3335 10.3333 5.37816 10.3333 6.66683C10.3333 7.72383 9.63045 8.6167 8.66665 8.90356Z" fill="#FEA500"/>
</svg>
