<svg width="17" height="16" viewBox="0 0 17 16" fill="none" xmlns="http://www.w3.org/2000/svg">
<path d="M6.29089 2.66689L8.02865 0.929152C8.28898 0.668798 8.71111 0.668798 8.97145 0.929152L10.7092 2.66689H13.1667C13.5349 2.66689 13.8334 2.96537 13.8334 3.33355V5.79108L15.5711 7.52883C15.8314 7.78917 15.8314 8.2113 15.5711 8.47163L13.8334 10.2094V12.6669C13.8334 13.0351 13.5349 13.3336 13.1667 13.3336H10.7092L8.97145 15.0713C8.71111 15.3316 8.28898 15.3316 8.02865 15.0713L6.29089 13.3336H3.83337C3.46518 13.3336 3.1667 13.0351 3.1667 12.6669V10.2094L1.42897 8.47163C1.16862 8.2113 1.16862 7.78917 1.42897 7.52883L3.1667 5.79108V3.33355C3.1667 2.96537 3.46518 2.66689 3.83337 2.66689H6.29089ZM4.50004 4.00022V6.34337L2.84318 8.00023L4.50004 9.6571V12.0002H6.84318L8.50005 13.6571L10.1569 12.0002H12.5V9.6571L14.1569 8.00023L12.5 6.34337V4.00022H10.1569L8.50005 2.34337L6.84318 4.00022H4.50004ZM8.50005 10.6669C7.02728 10.6669 5.83337 9.47297 5.83337 8.00023C5.83337 6.52746 7.02728 5.33355 8.50005 5.33355C9.97278 5.33355 11.1667 6.52746 11.1667 8.00023C11.1667 9.47297 9.97278 10.6669 8.50005 10.6669ZM8.50005 9.33356C9.23645 9.33356 9.83338 8.73663 9.83338 8.00023C9.83338 7.26383 9.23645 6.6669 8.50005 6.6669C7.76365 6.6669 7.16672 7.26383 7.16672 8.00023C7.16672 8.73663 7.76365 9.33356 8.50005 9.33356Z" fill="#FEA500"/>
</svg>
