<svg width="16" height="16" viewBox="0 0 16 16" fill="none" xmlns="http://www.w3.org/2000/svg">
<path d="M14 2H1.99998C1.63179 2 1.33331 2.29848 1.33331 2.66667V4.66667C1.33331 5.03486 1.63179 5.33333 1.99998 5.33333H14C14.3682 5.33333 14.6666 5.03486 14.6666 4.66667V2.66667C14.6666 2.29848 14.3682 2 14 2Z" stroke="#FEA500" stroke-width="1.5" stroke-linecap="round" stroke-linejoin="round"/>
<path d="M2.66669 5.3335V12.6668C2.66669 13.0205 2.80716 13.3596 3.05721 13.6096C3.30726 13.8597 3.6464 14.0002 4.00002 14.0002H12C12.3536 14.0002 12.6928 13.8597 12.9428 13.6096C13.1929 13.3596 13.3334 13.0205 13.3334 12.6668V5.3335" stroke="#FEA500" stroke-width="1.5" stroke-linecap="round" stroke-linejoin="round"/>
<path d="M6.66669 8H9.33335" stroke="#FEA500" stroke-width="1.5" stroke-linecap="round" stroke-linejoin="round"/>
</svg>
