<svg width="16" height="16" viewBox="0 0 16 16" fill="none" xmlns="http://www.w3.org/2000/svg">
<path d="M10.3267 5.8464L10.096 12.3078M6.904 12.3078L6.67333 5.8464M13.3187 3.54184C13.5467 3.57918 13.7733 3.61866 14 3.66102M13.3187 3.54184L12.6067 13.5089C12.5776 13.9147 12.4074 14.2937 12.13 14.5701C11.8527 14.8466 11.4886 15.0001 11.1107 15H5.88933C5.5114 15.0001 5.14735 14.8466 4.86999 14.5701C4.59262 14.2937 4.42239 13.9147 4.39333 13.5089L3.68133 3.54184M13.3187 3.54184C12.5492 3.41658 11.7758 3.32151 11 3.25683M3.68133 3.54184C3.45333 3.57846 3.22667 3.61795 3 3.6603M3.68133 3.54184C4.45076 3.41658 5.22416 3.32151 6 3.25683M11 3.25683V2.5992C11 1.75205 10.3933 1.0456 9.60667 1.01904C8.86908 0.993653 8.13092 0.993653 7.39333 1.01904C6.60667 1.0456 6 1.75276 6 2.5992V3.25683M11 3.25683C9.33581 3.11832 7.66419 3.11832 6 3.25683" stroke="#FEA500" stroke-width="1.5" stroke-linecap="round" stroke-linejoin="round"/>
</svg>
