<svg width="16" height="16" viewBox="0 0 16 16" fill="none" xmlns="http://www.w3.org/2000/svg">
<path d="M12.6667 6.66683H13.3333C13.7015 6.66683 14 6.9653 14 7.3335V14.0002C14 14.3684 13.7015 14.6668 13.3333 14.6668H2.66667C2.29848 14.6668 2 14.3684 2 14.0002V7.3335C2 6.9653 2.29848 6.66683 2.66667 6.66683H3.33333V6.00016C3.33333 3.42284 5.42267 1.3335 8 1.3335C10.5773 1.3335 12.6667 3.42284 12.6667 6.00016V6.66683ZM3.33333 8.00016V13.3335H12.6667V8.00016H3.33333ZM7.33333 9.3335H8.66667V12.0002H7.33333V9.3335ZM11.3333 6.66683V6.00016C11.3333 4.15922 9.84093 2.66683 8 2.66683C6.15905 2.66683 4.66667 4.15922 4.66667 6.00016V6.66683H11.3333Z" fill="#FEA500"/>
</svg>
