<svg width="16" height="16" viewBox="0 0 16 16" fill="none" xmlns="http://www.w3.org/2000/svg">
<path d="M12.4757 10.4994C13.4854 9.41003 14.1037 7.953 14.1037 6.35406C14.1036 2.98828 11.3654 0.25 7.99957 0.25C4.63376 0.25 1.89551 2.98828 1.89551 6.35406C1.89551 8.07622 2.61263 9.63384 3.76363 10.7447L2.25923 13.976C2.21991 14.0604 2.23079 14.1597 2.28745 14.2336C2.3441 14.3075 2.43713 14.3438 2.52888 14.3278L4.37507 14.0052L5.3167 15.6256C5.36157 15.7029 5.44407 15.75 5.53282 15.75C5.5366 15.75 5.54041 15.7499 5.5442 15.7498C5.63723 15.7455 5.7202 15.6899 5.75951 15.6055L7.24648 12.4117C7.49332 12.4422 7.7446 12.4581 7.99957 12.4581C8.36629 12.4581 8.72554 12.4256 9.07463 12.3633L10.1969 14.9689C10.2338 15.0544 10.3151 15.1124 10.4079 15.1193C10.4142 15.1198 10.4204 15.12 10.4266 15.12C10.5126 15.12 10.5931 15.0756 10.6389 15.0018L11.6272 13.4094L13.4632 13.7854C13.5544 13.8042 13.6485 13.7705 13.7072 13.6982C13.766 13.626 13.7798 13.5271 13.7429 13.4416L12.4757 10.4994ZM5.50838 14.9603L4.71985 13.6033C4.66726 13.5128 4.56398 13.4648 4.46066 13.4827L2.91466 13.7528L4.15407 11.0907C4.89179 11.6908 5.77173 12.1223 6.73482 12.326L5.50838 14.9603ZM2.39551 6.35406C2.39551 3.26397 4.90948 0.75 7.99957 0.75C11.0897 0.75 13.6036 3.26397 13.6036 6.35406C13.6036 9.44416 11.0897 11.9581 7.99957 11.9581C4.90948 11.9581 2.39551 9.44416 2.39551 6.35406ZM11.5568 12.8847C11.4542 12.8635 11.3494 12.9088 11.2942 12.9978L10.4667 14.3313L9.57138 12.2526C10.5233 11.9987 11.3844 11.5203 12.094 10.8773L13.0942 13.1995L11.5568 12.8847ZM12.2011 8.07447C12.1892 7.97441 12.178 7.88538 12.168 7.80544C12.1272 7.48063 12.1068 7.31766 12.1295 7.18872C12.1523 7.05981 12.2272 6.91359 12.3766 6.62234C12.4134 6.55066 12.4543 6.47081 12.4997 6.38091C12.7367 5.91212 12.6386 5.35563 12.2556 4.99616C12.1821 4.92719 12.1163 4.86619 12.0573 4.81138C11.8173 4.58875 11.6968 4.47703 11.6314 4.36366C11.5659 4.25031 11.5294 4.09012 11.4566 3.771C11.4387 3.69244 11.4187 3.605 11.3957 3.50688C11.2759 2.99544 10.843 2.63222 10.3186 2.60303C10.218 2.59741 10.1284 2.59297 10.0479 2.58897C9.72098 2.57269 9.55688 2.56453 9.43385 2.51975C9.31085 2.47494 9.17988 2.37575 8.91898 2.17806C8.85476 2.12937 8.78326 2.07522 8.7026 2.01484C8.28207 1.70009 7.71704 1.70009 7.29648 2.01484C7.21579 2.07522 7.14429 2.12941 7.08007 2.17806C6.81916 2.37572 6.6882 2.47494 6.5652 2.51975C6.44216 2.56453 6.27807 2.57266 5.95116 2.58897C5.8707 2.59297 5.7811 2.59744 5.68051 2.60303C5.15604 2.63222 4.72316 2.99544 4.60335 3.50688C4.58038 3.60497 4.56041 3.69244 4.54251 3.77097C4.4697 4.09009 4.43313 4.25028 4.3677 4.36366C4.30226 4.47703 4.18179 4.58875 3.94185 4.81134C3.88276 4.86616 3.81698 4.92719 3.74351 4.99616C3.36051 5.35563 3.26238 5.91212 3.49935 6.38091C3.54482 6.47081 3.58573 6.55066 3.62248 6.62234C3.77185 6.91359 3.84682 7.05981 3.86954 7.18872C3.89229 7.31766 3.87182 7.48066 3.8311 7.80544C3.82107 7.88541 3.80991 7.97441 3.79795 8.07447C3.7356 8.596 4.01813 9.08537 4.50101 9.29219C4.59363 9.33187 4.67632 9.36672 4.75057 9.398C5.0522 9.52509 5.2036 9.58891 5.30388 9.67306C5.40416 9.75722 5.49329 9.89522 5.67085 10.1702C5.71454 10.2379 5.76323 10.3132 5.81838 10.3976C6.04048 10.7372 6.40785 10.9298 6.79532 10.9298C6.90941 10.9298 7.02532 10.913 7.1397 10.8785C7.23613 10.8493 7.32185 10.8229 7.39882 10.7991C7.7116 10.7026 7.8686 10.6542 7.99951 10.6542C8.13041 10.6542 8.28741 10.7026 8.60023 10.7991C8.6772 10.8229 8.76295 10.8493 8.85935 10.8785C9.36213 11.0304 9.89316 10.8372 10.1807 10.3976C10.2358 10.3132 10.2845 10.2379 10.3282 10.1702C10.5058 9.89519 10.5949 9.75716 10.6952 9.67303C10.7954 9.58891 10.9469 9.52509 11.2485 9.39797C11.3227 9.36669 11.4054 9.33184 11.498 9.29216C11.9809 9.08537 12.2635 8.596 12.2011 8.07447ZM11.9317 6.39416C11.5878 7.06478 11.5781 7.11988 11.6719 7.86763C11.6818 7.94669 11.6929 8.03478 11.7047 8.13378C11.741 8.43775 11.5826 8.71203 11.3012 8.83256C11.2096 8.87181 11.1278 8.90625 11.0543 8.93722C10.3599 9.22987 10.317 9.26584 9.9082 9.89894C9.86498 9.96591 9.81682 10.0405 9.76226 10.1239C9.59473 10.3801 9.2971 10.4884 9.00404 10.3998C8.90863 10.371 8.82382 10.3448 8.74766 10.3213C8.02754 10.0991 7.9716 10.0991 7.25145 10.3213C7.17529 10.3448 7.09048 10.371 6.99507 10.3998C6.70198 10.4885 6.40441 10.3801 6.23685 10.1239C6.18229 10.0405 6.13413 9.96587 6.09091 9.89894C5.6821 9.26581 5.63926 9.22987 4.94479 8.93722C4.87132 8.90628 4.78954 8.87181 4.69788 8.83256C4.41648 8.71203 4.2581 8.43772 4.29445 8.13378C4.30626 8.03478 4.31732 7.94672 4.32726 7.86763C4.42104 7.11984 4.41132 7.06478 4.06745 6.39416C4.03107 6.32322 3.9906 6.24425 3.94563 6.15528C3.80754 5.88209 3.86251 5.57019 4.08573 5.36069C4.15845 5.29244 4.22351 5.23209 4.28195 5.17788C4.83441 4.66534 4.86238 4.61691 5.03001 3.88212C5.04773 3.80444 5.06748 3.71791 5.0902 3.62084C5.16001 3.32278 5.40263 3.11919 5.70829 3.10219C5.80782 3.09666 5.89645 3.09225 5.97604 3.08828C6.72876 3.05081 6.78132 3.03166 7.38204 2.57656C7.44557 2.52844 7.51632 2.47484 7.59613 2.41509C7.71866 2.32337 7.85913 2.27753 7.99957 2.27753C8.14001 2.27753 8.28045 2.32341 8.40301 2.41509C8.48282 2.47481 8.55354 2.52844 8.61707 2.57656C9.21779 3.03166 9.27035 3.05081 10.0231 3.08828C10.1027 3.09225 10.1913 3.09669 10.2908 3.10219C10.5965 3.11919 10.8391 3.32278 10.9089 3.62084C10.9317 3.71791 10.9514 3.80447 10.9691 3.88216C11.1368 4.61691 11.1647 4.66534 11.7172 5.17788C11.7757 5.23209 11.8407 5.29247 11.9134 5.36069C12.1366 5.57019 12.1916 5.88209 12.0535 6.15528C12.0086 6.24425 11.9681 6.32325 11.9317 6.39416ZM10.1444 5.5205L8.80741 5.45531L8.33232 4.20397C8.27948 4.06475 8.14885 3.97478 7.99957 3.97478C7.85026 3.97478 7.71963 4.06475 7.66682 4.20397L7.19173 5.45531L5.85482 5.5205C5.70582 5.52772 5.57973 5.62406 5.5336 5.76597C5.48748 5.90788 5.53282 6.05994 5.6491 6.15344L6.69238 6.99197L6.34123 8.28359C6.3021 8.42753 6.35482 8.57722 6.47551 8.66491C6.53832 8.71053 6.61135 8.73347 6.68457 8.73347C6.7521 8.73347 6.81979 8.71394 6.87963 8.67475L7.99957 7.94172L9.11948 8.67481C9.24432 8.75653 9.40295 8.75259 9.52366 8.66497C9.64435 8.57725 9.69704 8.42756 9.65788 8.28366L9.30676 6.99203L10.3501 6.1535C10.4664 6.06 10.5117 5.90794 10.4655 5.76603C10.4194 5.62413 10.2933 5.52775 10.1444 5.5205ZM7.86488 4.38147L7.86501 4.38178C7.86498 4.38166 7.86491 4.38156 7.86488 4.38147C7.86488 4.38144 7.86488 4.38144 7.86488 4.38147ZM8.92001 6.66138C8.80963 6.75006 8.76235 6.89563 8.79951 7.03216L9.07585 8.04866L8.19451 7.47175C8.07607 7.39419 7.92301 7.39422 7.8046 7.47172L6.92323 8.04866L7.19963 7.03203C7.2367 6.89547 7.18935 6.74997 7.0791 6.66138L6.25804 6.00144L7.3101 5.95013C7.45151 5.94331 7.57538 5.85337 7.62566 5.72097L7.99957 4.73619L8.37348 5.72103C8.42376 5.85341 8.54763 5.94334 8.68891 5.95016L9.74107 6.00147L8.92001 6.66138Z" fill="#62617C"/>
</svg>
