<svg width="25" height="24" viewBox="0 0 25 24" fill="none" xmlns="http://www.w3.org/2000/svg">
<path d="M20.5775 1H3.46225C2.81471 1.00069 2.19388 1.25822 1.736 1.71611C1.27812 2.17399 1.02058 2.79481 1.0199 3.44235V14.8941C1.02064 15.5416 1.2782 16.1624 1.73607 16.6203C2.19394 17.0782 2.81473 17.3357 3.46225 17.3365H11.2787V22.5882C11.2787 22.6423 11.2893 22.6959 11.31 22.7458C11.3307 22.7958 11.361 22.8412 11.3993 22.8795C11.4375 22.9177 11.4829 22.948 11.5329 22.9687C11.5828 22.9894 11.6364 23 11.6905 23H17.627C17.681 23 17.7346 22.9894 17.7846 22.9687C17.8345 22.948 17.8799 22.9177 17.9182 22.8795C17.9564 22.8412 17.9868 22.7958 18.0074 22.7458C18.0281 22.6959 18.0388 22.6423 18.0387 22.5882V20.1059H19.8528C19.9069 20.1059 19.9605 20.0953 20.0105 20.0746C20.0604 20.0539 20.1058 20.0236 20.1441 19.9853C20.1823 19.9471 20.2126 19.9017 20.2333 19.8517C20.254 19.8018 20.2646 19.7482 20.2646 19.6941V17.3365H20.5775C21.2251 17.3357 21.8459 17.0782 22.3037 16.6203C22.7616 16.1624 23.0191 15.5416 23.0199 14.8941V3.44235C23.0192 2.79481 22.7617 2.17399 22.3038 1.71611C21.8459 1.25822 21.2251 1.00069 20.5775 1ZM9.99872 16.5129C10.011 16.5014 10.0239 16.4911 10.0357 16.4793L11.2787 15.2365V16.5129H9.99872ZM19.4411 19.2824H18.038V14.6118C18.038 14.5026 17.9946 14.3978 17.9174 14.3206C17.8402 14.2434 17.7355 14.2 17.6263 14.2C17.517 14.2 17.4123 14.2434 17.3351 14.3206C17.2579 14.3978 17.2145 14.5026 17.2145 14.6118V19.6941V19.7009V22.1762H12.1023V14.2424C12.1023 14.1609 12.0781 14.0813 12.0328 14.0135C11.9876 13.9458 11.9233 13.893 11.848 13.8619C11.7727 13.8307 11.6899 13.8226 11.61 13.8385C11.5301 13.8544 11.4568 13.8937 11.3992 13.9513L9.45354 15.8972C9.35778 15.9932 9.24401 16.0694 9.11874 16.1214C8.99347 16.1734 8.85918 16.2002 8.72355 16.2002C8.58791 16.2002 8.45362 16.1734 8.32835 16.1214C8.20308 16.0694 8.08931 15.9932 7.99354 15.8972L4.77002 12.6736L5.76107 11.6812L8.43237 14.3529C8.50955 14.4302 8.61424 14.4736 8.72343 14.4736H8.72578C8.78011 14.4734 8.83386 14.4625 8.88394 14.4414C8.93401 14.4203 8.97942 14.3895 9.01754 14.3508L11.3072 12.0282C11.4837 11.8499 11.6938 11.7081 11.9253 11.6112C12.1568 11.5143 12.4052 11.4641 12.6561 11.4635H16.8081C17.5062 11.4642 18.1756 11.7418 18.6692 12.2354C19.1629 12.729 19.4405 13.3984 19.4411 14.0965V19.2824ZM22.1964 14.8941C22.1959 15.3233 22.0252 15.7348 21.7217 16.0383C21.4183 16.3418 21.0068 16.5125 20.5775 16.5129H20.2646V14.0965C20.2635 13.1801 19.899 12.3015 19.2511 11.6535C18.6031 11.0056 17.7245 10.6411 16.8081 10.64H12.6552C12.2951 10.6407 11.9388 10.7127 11.6066 10.8516C11.2744 10.9906 10.973 11.1938 10.7197 11.4496L8.72131 13.4767L6.30602 11.0614C6.30602 11.0581 6.30602 11.0553 6.30602 11.0522V6.28094C6.30602 6.17173 6.26263 6.067 6.18541 5.98978C6.10819 5.91256 6.00346 5.86918 5.89425 5.86918C5.78504 5.86918 5.68031 5.91256 5.60309 5.98978C5.52587 6.067 5.48249 6.17173 5.48249 6.28094V10.7967C5.47801 10.8007 5.47331 10.8035 5.46907 10.8078L3.89496 12.3819C3.85669 12.4201 3.82633 12.4655 3.80562 12.5155C3.7849 12.5654 3.77424 12.619 3.77424 12.6731C3.77424 12.7271 3.7849 12.7807 3.80562 12.8307C3.82633 12.8806 3.85669 12.926 3.89496 12.9642L7.41025 16.4793C7.42202 16.4911 7.43519 16.5014 7.44719 16.5129H3.46225C3.03305 16.5125 2.62154 16.3418 2.31805 16.0383C2.01456 15.7348 1.84386 15.3233 1.84343 14.8941V3.44235C1.84386 3.01315 2.01456 2.60165 2.31805 2.29815C2.62154 1.99466 3.03305 1.82397 3.46225 1.82353H20.5775C21.0068 1.82397 21.4183 1.99466 21.7217 2.29815C22.0252 2.60165 22.1959 3.01315 22.1964 3.44235V14.8941Z" fill="#62617C"/>
<path d="M14.7675 4.78772C14.2679 4.78767 13.7796 4.93577 13.3642 5.21327C12.9488 5.49077 12.6251 5.88522 12.4339 6.34674C12.2427 6.80825 12.1927 7.31609 12.2901 7.80604C12.3875 8.29599 12.6281 8.74604 12.9813 9.09927C13.3346 9.4525 13.7846 9.69305 14.2746 9.7905C14.7645 9.88794 15.2723 9.8379 15.7339 9.64672C16.1954 9.45553 16.5898 9.13177 16.8673 8.71639C17.1448 8.30102 17.2929 7.81268 17.2929 7.31313C17.2921 6.6436 17.0257 6.00172 16.5523 5.52829C16.0789 5.05486 15.437 4.78853 14.7675 4.78772ZM14.7675 9.01525C14.4308 9.0153 14.1017 8.91551 13.8218 8.7285C13.5418 8.5415 13.3236 8.27568 13.1947 7.96467C13.0659 7.65365 13.0321 7.3114 13.0978 6.98121C13.1634 6.65102 13.3255 6.34771 13.5636 6.10964C13.8016 5.87157 14.1049 5.70943 14.4351 5.64374C14.7653 5.57804 15.1075 5.61174 15.4185 5.74056C15.7296 5.86938 15.9954 6.08754 16.1825 6.36746C16.3695 6.64738 16.4693 6.97647 16.4693 7.31313C16.4688 7.76435 16.2893 8.19693 15.9703 8.51601C15.6512 8.83509 15.2187 9.01463 14.7675 9.01525Z" fill="#62617C"/>
</svg>
