<svg width="24" height="24" viewBox="0 0 24 24" fill="none" xmlns="http://www.w3.org/2000/svg">
<path d="M1 9.84177C0.999915 9.52021 1.07741 9.2025 1.22707 8.9108C1.37674 8.61911 1.59497 8.36045 1.86656 8.15288L10.4221 1.52223C10.8633 1.18501 11.4223 1 12 1C12.5777 1 13.1367 1.18501 13.5779 1.52223L17.8557 4.83756L22.1334 8.15288C22.405 8.36045 22.6233 8.61911 22.7729 8.9108C22.9226 9.2025 23.0001 9.52021 23 9.84177V19.7894C23 20.3757 22.7425 20.938 22.284 21.3525C21.8256 21.7671 21.2039 22 20.5556 22H3.44444C2.79614 22 2.17438 21.7671 1.71596 21.3525C1.25754 20.938 1 20.3757 1 19.7894V9.84177Z" fill="#FFBE00" stroke="#FFBE00" stroke-width="2" stroke-linecap="round" stroke-linejoin="round"/>
<path d="M15 22V12.2222C15 11.8981 14.8946 11.5872 14.7071 11.358C14.5196 11.1288 14.2652 11 14 11H10C9.73478 11 9.48043 11.1288 9.29289 11.358C9.10536 11.5872 9 11.8981 9 12.2222V22" stroke="#FDFDFD" stroke-width="2" stroke-linecap="square" stroke-linejoin="round"/>
</svg>
