<svg width="16" height="17" viewBox="0 0 16 17" fill="none" xmlns="http://www.w3.org/2000/svg">
<path d="M12.6667 7.83337H3.33333C2.59695 7.83337 2 8.43033 2 9.16671V13.8334C2 14.5698 2.59695 15.1667 3.33333 15.1667H12.6667C13.403 15.1667 14 14.5698 14 13.8334V9.16671C14 8.43033 13.403 7.83337 12.6667 7.83337Z" stroke="#FF7373" stroke-width="1.5" stroke-linecap="round" stroke-linejoin="round"/>
<path d="M4.66699 7.83337V5.16671C4.66699 4.28265 5.01818 3.43481 5.6433 2.80968C6.26842 2.18456 7.11627 1.83337 8.00033 1.83337C8.88438 1.83337 9.73223 2.18456 10.3573 2.80968C10.9825 3.43481 11.3337 4.28265 11.3337 5.16671V7.83337" stroke="#FF7373" stroke-width="1.5" stroke-linecap="round" stroke-linejoin="round"/>
</svg>
