<svg width="24" height="24" viewBox="0 0 24 24" fill="none" xmlns="http://www.w3.org/2000/svg">
<g clip-path="url(#clip0_961_18381)">
<path d="M12.8295 1.3208L23.218 8.29893C23.6221 8.57059 23.6221 9.2443 23.218 9.51595L12.8295 16.4941C12.1912 16.9228 11.4033 16.9228 10.7658 16.4941L0.377361 9.51595C-0.0268288 9.2443 -0.0268288 8.57059 0.377361 8.29893L10.7658 1.3208C11.4033 0.893066 12.1912 0.893066 12.8295 1.3208Z" fill="#FFBE00"/>
<path d="M12.8295 1.3208L23.218 8.29893C23.6221 8.57059 23.6221 9.2443 23.218 9.51595L12.8295 16.4941C12.1912 16.9228 11.4033 16.9228 10.7658 16.4941L0.377361 9.51595C-0.0268288 9.2443 -0.0268288 8.57059 0.377361 8.29893L10.7658 1.3208C11.4033 0.893066 12.1912 0.893066 12.8295 1.3208Z" fill="#FFBE00"/>
<path d="M23.214 9.52092L19.6848 11.8917L12.8315 16.4951C12.1906 16.9199 11.4044 16.9199 10.7635 16.4951L3.91024 11.8917L0.372509 9.52092C-0.0291176 9.24432 -0.0291176 8.57259 0.372509 8.29599L10.7635 1.32181C11.4044 0.897042 12.1906 0.897042 12.8315 1.32181L23.214 8.29599C23.6241 8.57259 23.6241 9.24432 23.214 9.52092Z" fill="#FFBE00"/>
<path d="M13.4757 17.7763C12.9604 18.1171 12.3828 18.2959 11.7974 18.2959C11.2121 18.2959 10.6344 18.1171 10.126 17.7813L3.91016 13.6057V17.315C3.91016 18.1448 4.28615 18.9054 4.90995 19.3203L9.24239 22.2147C10.8233 23.2618 12.7716 23.2618 14.3439 22.2147L18.6849 19.3203C19.3001 18.9054 19.6847 18.1448 19.6847 17.315V13.6057L13.4757 17.7763Z" fill="#FFBE00"/>
<path d="M23.4017 18.6259V11.1084L21.8627 12.1417V18.6249C21.5012 18.9094 21.2637 19.3885 21.2637 19.9318C21.2637 20.8051 21.8764 21.5134 22.6318 21.5134C23.3872 21.5134 23.9999 20.8061 23.9999 19.9328C23.9999 19.3895 23.7623 18.9114 23.4017 18.6259Z" fill="#FFBE00"/>
</g>
<defs>
<clipPath id="clip0_961_18381">
<rect width="24" height="24" fill="white"/>
</clipPath>
</defs>
</svg>
