<svg width="24" height="24" viewBox="0 0 24 24" fill="none" xmlns="http://www.w3.org/2000/svg">
<path d="M23.1463 18.1299V10.5387L23.3409 10.4126C23.7538 10.1457 24 9.66945 24 9.13839C24 8.60732 23.7538 8.13019 23.3409 7.86328L13.3622 1.40824C12.5225 0.863463 11.4775 0.864377 10.6378 1.40824L0.658299 7.8642C0.246246 8.1311 0 8.60732 0 9.13839C0 9.66945 0.246246 10.1457 0.658299 10.4135L3.68385 12.3714V16.9225C3.68385 17.9791 4.1944 18.9617 5.01522 19.4891L9.18007 22.1627C10.0493 22.7203 11.0245 23 11.9996 23C12.9747 23 13.949 22.7212 14.8191 22.1627L18.9831 19.4891C19.8048 18.9626 20.3153 17.9791 20.3153 16.9225V12.3705L21.6689 11.4948V18.1299C21.3217 18.3932 21.0935 18.8365 21.0935 19.3401C21.0935 20.1482 21.682 20.8035 22.4076 20.8035C23.1332 20.8035 23.7217 20.1482 23.7217 19.3401C23.7217 18.8374 23.4936 18.3941 23.1463 18.1299ZM18.8387 16.9215C18.8387 17.3914 18.6121 17.8283 18.246 18.0623L14.082 20.7359C12.7982 21.5595 11.2018 21.5595 9.91881 20.7359L5.75396 18.0623C5.38869 17.8283 5.16215 17.3914 5.16215 16.9215V13.3266L10.6378 16.8694C11.0581 17.1409 11.5293 17.2771 12.0004 17.2771C12.4716 17.2771 12.9427 17.1418 13.363 16.8694L18.8387 13.3266V16.9215ZM12.6201 15.4472C12.2376 15.6949 11.7624 15.6949 11.3799 15.4472L1.62933 9.13839L11.379 2.82959C11.7616 2.58188 12.2368 2.58188 12.6193 2.82959L22.3698 9.13747L12.6201 15.4472Z" fill="#A1A1A1"/>
</svg>
