<svg width="24" height="24" viewBox="0 0 24 24" fill="none" xmlns="http://www.w3.org/2000/svg">
<path d="M12 12C14.7614 12 17 9.76142 17 7C17 4.23858 14.7614 2 12 2C9.23858 2 7 4.23858 7 7C7 9.76142 9.23858 12 12 12Z" fill="#FFBE00" stroke="#FFBE00" stroke-width="2" stroke-linecap="round" stroke-linejoin="round"/>
<mask id="path-2-inside-1_961_13098" fill="white">
<path d="M21 22C21 19.8783 20.0518 17.8434 18.364 16.3431C16.6761 14.8429 14.3869 14 12 14C9.61305 14 7.32387 14.8429 5.63604 16.3431C3.94821 17.8434 3 19.8783 3 22"/>
</mask>
<path d="M21 22C21 19.8783 20.0518 17.8434 18.364 16.3431C16.6761 14.8429 14.3869 14 12 14C9.61305 14 7.32387 14.8429 5.63604 16.3431C3.94821 17.8434 3 19.8783 3 22" fill="#FFBE00"/>
<path d="M19 22C19 23.1046 19.8954 24 21 24C22.1046 24 23 23.1046 23 22H19ZM12 14V12V14ZM1 22C1 23.1046 1.89543 24 3 24C4.10457 24 5 23.1046 5 22H1ZM23 22C23 19.2667 21.7764 16.7006 19.6927 14.8483L17.0352 17.838C18.3271 18.9863 19 20.4898 19 22H23ZM19.6927 14.8483C17.6166 13.0029 14.8463 12 12 12V16C13.9276 16 15.7357 16.6828 17.0352 17.838L19.6927 14.8483ZM12 12C9.15369 12 6.38339 13.0029 4.30731 14.8483L6.96477 17.838C8.26434 16.6828 10.0724 16 12 16V12ZM4.30731 14.8483C2.22356 16.7006 1 19.2667 1 22H5C5 20.4898 5.67286 18.9863 6.96477 17.838L4.30731 14.8483Z" fill="#FFBE00" mask="url(#path-2-inside-1_961_13098)"/>
</svg>
