<svg width="25" height="24" viewBox="0 0 25 24" fill="none" xmlns="http://www.w3.org/2000/svg">
<path d="M21.0199 7.5V6C21.0199 5.46957 20.8092 4.96086 20.4341 4.58579C20.059 4.21071 19.5503 4 19.0199 4H5.0199C4.48946 4 3.98076 4.21071 3.60568 4.58579C3.23061 4.96086 3.0199 5.46957 3.0199 6V20C3.0199 20.5304 3.23061 21.0391 3.60568 21.4142C3.98076 21.7893 4.48946 22 5.0199 22H8.5199" stroke="#62617C" stroke-linecap="round" stroke-linejoin="round"/>
<path d="M16.0199 2V6" stroke="#62617C" stroke-linecap="round" stroke-linejoin="round"/>
<path d="M8.0199 2V6" stroke="#62617C" stroke-linecap="round" stroke-linejoin="round"/>
<path d="M3.0199 10H8.0199" stroke="#62617C" stroke-linecap="round" stroke-linejoin="round"/>
<path d="M17.5199 17.5L16.0199 16.3V14" stroke="#62617C" stroke-linecap="round" stroke-linejoin="round"/>
<path d="M16.0199 22C19.3336 22 22.0199 19.3137 22.0199 16C22.0199 12.6863 19.3336 10 16.0199 10C12.7062 10 10.0199 12.6863 10.0199 16C10.0199 19.3137 12.7062 22 16.0199 22Z" stroke="#62617C" stroke-linecap="round" stroke-linejoin="round"/>
</svg>
